HIERARCHY
ROOT pelvis
{
  OFFSET 0 100 0
  CHANNELS 6 Xposition Yposition Zposition Zrotation Xrotation Yrotation
  JOINT pelvis_right_femur
  {
    OFFSET -10.78128 -3.44521 -0.5502486
    CHANNELS 3 Zrotation Xrotation Yrotation
    JOINT right_femur_tibia
    {
      OFFSET -0.8047443 -44.0398 -0.1307829
      CHANNELS 3 Zrotation Xrotation Yrotation
      JOINT right_tibia_foot
      {
        OFFSET 3.006224 -47.83518 -5
        CHANNELS 3 Zrotation Xrotation Yrotation
        End Site
        {
          OFFSET 0 -5 15
        }
      }
    }
  }
  JOINT pelvis_left_femur
  {
    OFFSET 10.78128 -3.44521 -0.5502486
    CHANNELS 3 Zrotation Xrotation Yrotation
    JOINT left_femur_tibia
    {
      OFFSET 0.8047443 -44.0398 -0.1307829
      CHANNELS 3 Zrotation Xrotation Yrotation
      JOINT left_tibia_foot
      {
        OFFSET -4.370144 -48.10324 -4.275266
        CHANNELS 3 Zrotation Xrotation Yrotation
        End Site
        {
          OFFSET 0 -5 15
        }
      }
    }
  }
  JOINT pelvis_spine1
  {
    OFFSET 0 6.468898 -3.129235
    CHANNELS 3 Zrotation Xrotation Yrotation
    JOINT spine1
    {
      OFFSET 0 23.15396 4.99043
      CHANNELS 3 Zrotation Xrotation Yrotation
      JOINT spine2
      {
        OFFSET 0 20.79997 -5.064912
        CHANNELS 3 Zrotation Xrotation Yrotation
        JOINT neck
        {
          OFFSET 0 14.38658 9.616178
          CHANNELS 3 Zrotation Xrotation Yrotation
          End Site
          {
            OFFSET 0 20 0
          }
        }
      }
      JOINT right_manubrium
      {
        OFFSET -5.722621 16.35077 3.967754
        CHANNELS 3 Zrotation Xrotation Yrotation
        JOINT right_clavicle
        {
          OFFSET -13.16364 1.694482 -4.693211
          CHANNELS 3 Zrotation Xrotation Yrotation
          JOINT right_humerus
          {
            OFFSET -28.5034 -0.3100689 -2.792744
            CHANNELS 3 Zrotation Xrotation Yrotation
            JOINT right_radius
            {
              OFFSET -25.15693 0.02248979 -1.271978
              CHANNELS 3 Zrotation Xrotation Yrotation
              End Site
              {
                OFFSET -15 0 0
              }
            }
          }
        }
      }
      JOINT left_manubrium
      {
        OFFSET 5.722621 16.35077 3.967754
        CHANNELS 3 Zrotation Xrotation Yrotation
        JOINT left_clavicle
        {
          OFFSET 13.16364 1.694482 -4.693211
          CHANNELS 3 Zrotation Xrotation Yrotation
          JOINT left_humerus
          {
            OFFSET 29.39168 -1.063119 -2.237045
            CHANNELS 3 Zrotation Xrotation Yrotation
            JOINT left_radius
            {
              OFFSET 24.59957 -0.9528479 0.9047498
              CHANNELS 3 Zrotation Xrotation Yrotation
              End Site
              {
                OFFSET 15 -0 -0
              }
            }
          }
        }
      }
    }
  }
}
MOTION
Frames: 23
Frame Time: 0.0416666666667
-1959.412 84.93271 1858.74 -10.86677 4.831064 -115.0852 4.42884 5.183809 -8.287378 -0 17.11766 -0 -16.63771 8.267476 4.009558 -0.7510047 -6.487268 -3.064146 -0 25.18384 -0 5.677871 -5.318896 16.93937 0.2584738 -2.65281 4.581869 -1.025346 16.58323 -4.894024 1.154329 23.357 4.16769 3.402093 -18.11102 4.285896 -4.997327 -24.74016 11.98411 94.28694 12.14399 -13.35127 -0 0 13.57209 -28.72381 8.82487 13.54748 5.900676 -26.51405 -9.869623 -89.64416 3.932836 20.56755 0 0 -9.22796 22.40641 14.28732 -16.37506
-1965.805 84.91776 1856.327 -10.80426 4.870615 -115.4151 4.440196 5.580652 -8.199281 -0 17.13246 -0 -16.54457 7.990726 3.998842 -0.6875361 -6.929402 -3.074154 -0 24.8621 -0 5.653831 -5.269187 17.03029 0.2438951 -2.64247 4.645667 -1.039805 16.54339 -4.847876 1.157265 23.34422 4.163848 3.392383 -18.11578 4.292789 -4.962607 -24.82572 11.97934 94.12623 12.24277 -13.16668 -0 0 13.81167 -28.71723 8.830259 13.60433 5.883209 -26.40514 -9.805662 -89.74007 4.047771 20.78168 0 0 -9.06548 22.22825 14.31743 -16.14805
-1972.177 84.88053 1853.899 -10.75155 4.909172 -115.7451 4.435141 5.967886 -8.114679 -0 17.24583 -0 -16.44823 7.753947 3.98985 -0.6396082 -7.33978 -3.095791 -0 24.49333 -0 5.638731 -5.232586 17.12632 0.222791 -2.632875 4.702842 -1.058565 16.5039 -4.799726 1.16075 23.33502 4.163211 3.383376 -18.11532 4.303425 -4.92785 -24.90557 11.97251 93.97287 12.33598 -12.97987 -0 0 14.04268 -28.71955 8.830478 13.66502 5.865103 -26.29172 -9.74561 -89.83117 4.15902 20.98614 0 0 -8.892036 22.05488 14.34504 -15.92739
-1978.53 84.82552 1851.455 -10.71098 4.947779 -116.071 4.414026 6.323664 -8.03834 -0 17.45262 -0 -16.35368 7.572049 3.982596 -0.6101171 -7.694453 -3.127366 -0 24.10295 -0 5.632625 -5.210554 17.22132 0.1964457 -2.624366 4.750031 -1.080698 16.46709 -4.752225 1.164689 23.3301 4.16576 3.375556 -18.10912 4.317161 -4.895095 -24.97443 11.96402 93.83608 12.41792 -12.80179 -0 0 14.25098 -28.73126 8.825763 13.72617 5.847243 -26.18016 -9.693065 -89.9116 4.26006 21.16822 0 0 -8.717708 21.89598 14.36824 -15.72547
-1984.865 84.75859 1848.994 -10.68425 4.987466 -116.3893 4.378095 6.628535 -7.974519 -0 17.74313 -0 -16.26567 7.456733 3.976957 -0.6008499 -7.973106 -3.166684 -0 23.71683 -0 5.635106 -5.20371 17.30941 0.1663777 -2.617208 4.784493 -1.10515 16.43509 -4.707886 1.168971 23.32992 4.171303 3.369331 -18.09695 4.33321 -4.866235 -25.02775 11.95431 93.72402 12.48366 -12.64267 -0 0 14.42405 -28.75241 8.816592 13.78449 5.830487 -26.07655 -9.651145 -89.97614 4.3451 21.31669 0 0 -8.552269 21.76023 14.38549 -15.55338
-1991.186 84.68652 1846.516 -10.67209 5.029144 -116.6965 4.329437 6.866187 -7.926776 -0 18.1029 -0 -16.18861 7.415557 3.972804 -0.6123544 -8.1601 -3.21122 -0 23.35921 -0 5.645492 -5.211931 17.3853 0.1342733 -2.61163 4.804257 -1.13074 16.40973 -4.66902 1.173441 23.33463 4.179495 3.36502 -18.079 4.350665 -4.84292 -25.06209 11.94387 93.64324 12.52933 -12.51145 -0 0 14.5517 -28.78242 8.80362 13.8369 5.81566 -25.98643 -9.622304 -90.02061 4.409364 21.42261 0 0 -8.404772 21.65496 14.39571 -15.42049
-1997.495 84.61652 1844.018 -10.67416 5.07351 -116.9901 4.270904 7.024021 -7.897807 -0 18.5128 -0 -16.12656 7.451278 3.970105 -0.6438852 -8.245234 -3.258289 -0 23.05116 -0 5.662965 -5.234456 17.44466 0.1019215 -2.607853 4.808233 -1.156157 16.39247 -4.637673 1.177892 23.34404 4.189855 3.362845 -18.05604 4.368545 -4.826475 -25.07537 11.93327 93.59839 12.55237 -12.41543 -0 0 14.6267 -28.81993 8.787629 13.8806 5.803547 -25.91468 -9.608187 -90.04222 4.449315 21.47987 0 0 -8.283214 21.58593 14.39839 -15.33409
-2003.795 84.5557 1841.496 -10.68892 5.120989 -117.2681 4.205984 7.09361 -7.889299 -0 18.94946 -0 -16.08304 7.561517 3.968983 -0.6934321 -8.224244 -3.305194 -0 22.80938 -0 5.686641 -5.26996 17.48429 0.07114423 -2.606097 4.796276 -1.179991 16.38426 -4.615561 1.182063 23.3576 4.201787 3.36292 -18.02942 4.385829 -4.81783 -25.06705 11.92309 93.59186 12.55166 -12.35989 -0 0 14.64516 -28.86283 8.76949 13.9132 5.794862 -25.86528 -9.609536 -90.03974 4.462815 21.48553 0 0 -8.194238 21.55697 14.39359 -15.29898
-2010.088 84.51043 1838.948 -10.71374 5.171705 -117.5296 4.138613 7.071075 -7.901813 -0 19.38633 -0 -16.06084 7.738847 3.969712 -0.7578336 -8.099012 -3.349348 -0 22.64561 -0 5.715566 -5.316598 17.50228 0.04371824 -2.606565 4.769195 -1.200782 16.38555 -4.603997 1.185649 23.37441 4.214604 3.365251 -18.00101 4.401504 -4.817463 -25.03807 11.91393 93.62374 12.52757 -12.34785 -0 0 14.60667 -28.90826 8.750141 13.93278 5.790208 -25.84114 -9.626149 -90.01366 4.449235 21.43997 0 0 -8.142857 21.56987 14.38191 -15.3173
-2016.376 84.4859 1836.371 -10.7451 5.225495 -117.7748 4.072957 6.957399 -7.934708 -0 19.79521 -0 -16.06185 7.971291 3.972654 -0.8329721 -7.877491 -3.388366 -0 22.56653 -0 5.748652 -5.372021 17.49802 0.02128681 -2.609407 4.728713 -1.217124 16.39624 -4.603801 1.188339 23.3933 4.227562 3.369723 -17.97301 4.414621 -4.825378 -24.9908 11.90636 93.69175 12.48186 -12.37994 -0 0 14.51428 -28.9529 8.730572 13.93802 5.790014 -25.84391 -9.656896 -89.96604 4.409484 21.34678 0 0 -8.132184 21.62412 14.36438 -15.38822
-2022.661 84.48571 1833.76 -10.77889 5.281962 -118.005 4.01314 6.758607 -7.986122 -0 20.14837 -0 -16.0867 8.243222 3.978143 -0.9140443 -7.573318 -3.420152 -0 22.57393 -0 5.784582 -5.433382 17.47215 0.00525991 -2.614662 4.677369 -1.227781 16.41565 -4.615204 1.189853 23.41291 4.23989 3.376102 -17.94775 4.424351 -4.84109 -24.92874 11.90091 93.79145 12.4176 -12.45424 -0 0 14.37422 -28.99327 8.711808 13.92836 5.794471 -25.87379 -9.69979 -89.90038 4.345985 21.21242 0 0 -8.163181 21.71687 14.34234 -15.50793
-2028.942 84.51165 1831.114 -10.81085 5.340542 -118.2223 3.962957 6.485772 -8.053024 -0 20.42098 -0 -16.13462 8.536587 3.986352 -0.9958904 -7.205101 -3.442966 -0 22.66521 -0 5.821729 -5.497377 17.42652 -0.003290917 -2.62221 4.618366 -1.231835 16.44261 -4.637767 1.189988 23.43186 4.250835 3.384035 -17.92738 4.430046 -4.863655 -24.85621 11.89797 93.91651 12.33888 -12.56639 -0 0 14.19548 -29.02615 8.69488 13.9041 5.803469 -25.92939 -9.752118 -89.82124 4.262556 21.04575 0 0 -8.234447 21.84291 14.31728 -15.66961
-2035.219 84.56367 1828.429 -10.83698 5.400589 -118.43 3.925592 6.154723 -8.131357 -0 20.59352 -0 -16.20321 8.832327 3.997156 -1.073357 -6.795388 -3.455498 -0 22.83385 -0 5.858121 -5.560328 17.364 -0.003732432 -2.631723 4.555372 -1.228815 16.47547 -4.670321 1.18866 23.44883 4.25971 3.393061 -17.91357 4.431298 -4.891711 -24.77798 11.89779 94.0591 12.25058 -12.70971 -0 0 13.98923 -29.04895 8.680787 13.86646 5.816559 -26.0077 -9.810616 -89.73388 4.164216 20.85734 0 0 -8.342118 21.99486 14.29077 -15.86376
-2041.492 84.64004 1825.705 -10.85395 5.461432 -118.6318 3.903369 5.785371 -8.216259 -0 20.65387 -0 -16.28848 9.111827 4.010047 -1.141661 -6.369333 -3.456942 -0 23.06992 -0 5.891499 -5.618363 17.28832 0.004050728 -2.642655 4.492287 -1.218793 16.51223 -4.710975 1.18593 23.46272 4.265941 3.402632 -17.9073 4.427986 -4.923553 -24.69893 11.90043 94.21045 12.15806 -12.87551 -0 0 13.7681 -29.06007 8.670428 13.81763 5.832948 -26.10408 -9.871678 -89.64387 4.056914 20.65883 0 0 -8.479917 22.16349 14.26429 -16.07856
-2047.759 84.73759 1822.938 -10.85934 5.52243 -118.8316 3.897575 5.400634 -8.302374 -0 20.59863 -0 -16.38497 9.35823 4.024122 -1.196712 -5.953148 -3.447073 -0 23.36052 -0 5.919468 -5.667659 17.20391 0.01961323 -2.654263 4.432988 -1.20242 16.55063 -4.757192 1.182004 23.47273 4.26912 3.412145 -17.90878 4.4203 -4.957226 -24.62368 11.90574 94.3613 12.06679 -13.05359 -0 0 13.54542 -29.05902 8.664539 13.76064 5.851542 -26.21256 -9.93158 -89.55665 3.947187 20.46215 0 0 -8.639414 22.33827 14.23921 -16.30061
-2054.018 84.85205 1820.13 -10.85179 5.582982 -119.0337 3.908376 5.024957 -8.384216 -0 20.43346 -0 -16.48616 9.557471 4.038161 -1.235369 -5.572426 -3.426312 -0 23.69005 -0 5.939739 -5.704768 17.11566 0.04195631 -2.665669 4.381079 -1.180886 16.5883 -4.805951 1.177219 23.4784 4.269036 3.420983 -17.91742 4.408741 -4.990651 -24.55639 11.91333 94.50256 11.98215 -13.23284 -0 0 13.33447 -29.04645 8.663611 13.69922 5.871032 -26.32614 -9.986713 -89.47723 3.841765 20.27883 0 0 -8.810517 22.50801 14.21677 -16.51577
-2060.268 84.97848 1817.279 -10.83097 5.642528 -119.2418 3.934826 4.682568 -8.456571 -0 20.17231 -0 -16.585 9.698961 4.050795 -1.255603 -5.250478 -3.395758 -0 24.04061 -0 5.950425 -5.726951 17.0287 0.06959111 -2.675957 4.339666 -1.15581 16.62291 -4.853975 1.171993 23.47959 4.265702 3.428564 -17.93203 4.394089 -5.021746 -24.50057 11.92269 94.62578 11.90905 -13.40201 -0 0 13.1477 -29.024 8.667826 13.63747 5.890014 -26.43733 -10.03379 -89.40998 3.747147 20.11944 0 0 -8.982159 22.66176 14.19806 -16.71022
-2066.508 85.11154 1814.386 -10.79741 5.700535 -119.4594 3.974979 4.395616 -8.51488 -0 19.83572 -0 -16.67456 9.775915 4.060722 -1.256559 -5.006808 -3.357182 -0 24.39253 -0 5.950332 -5.732485 16.94816 0.1006543 -2.684284 4.311164 -1.129063 16.65232 -4.898013 1.166772 23.4765 4.259353 3.434388 -17.951 4.377341 -5.048578 -24.45904 11.93313 94.72369 11.85176 -13.55046 -0 0 12.99607 -28.99394 8.677004 13.57956 5.907134 -26.53877 -10.07006 -89.35842 3.669171 19.99301 0 0 -9.143135 22.78955 14.18403 -16.87145
-2072.734 85.24582 1811.454 -10.75229 5.756493 -119.689 4.026071 4.182437 -8.555578 -0 19.44852 -0 -16.74871 9.785398 4.066926 -1.238545 -4.855852 -3.312955 -0 24.7251 -0 5.939185 -5.720879 16.87887 0.1330623 -2.68999 4.297165 -1.102577 16.67474 -4.935119 1.161971 23.46951 4.250429 3.438079 -17.97263 4.359623 -5.06949 -24.43383 11.94394 94.7906 11.8136 -13.66891 -0 0 12.8884 -28.95887 8.690592 13.52933 5.921215 -26.6238 -10.09342 -89.32516 3.61262 19.90665 0 0 -9.282983 22.88328 14.17546 -16.98929
-2078.946 85.37603 1808.483 -10.69723 5.809922 -119.9325 4.084745 4.056136 -8.576337 -0 19.03733 -0 -16.80269 9.728176 4.068855 -1.202941 -4.806073 -3.265899 -0 25.01774 -0 5.917728 -5.692964 16.82509 0.1646832 -2.692681 4.298352 -1.078152 16.68884 -4.962909 1.157924 23.45919 4.23954 3.43942 -17.99531 4.342102 -5.083224 -24.42622 11.95436 94.82274 11.79678 -13.75015 -0 0 12.83094 -28.92135 8.707683 13.49001 5.931373 -26.68705 -10.10258 -89.31182 3.580884 19.86518 0 0 -9.392804 22.93728 14.17293 -17.05664
-2085.142 85.49714 1805.478 -10.63408 5.860408 -120.191 4.147299 4.023654 -8.576207 -0 18.62829 -0 -16.83346 9.608469 4.066494 -1.152084 -4.859483 -3.219091 -0 25.25137 -0 5.887675 -5.650825 16.79021 0.1935053 -2.692263 4.314479 -1.0573 16.69383 -4.97974 1.154853 23.44621 4.227408 3.438363 -18.01768 4.325885 -5.089005 -24.43665 11.96376 94.81845 11.80226 -13.7895 -0 0 12.82689 -28.88369 8.727088 13.46396 5.937071 -26.72479 -10.09713 -89.31901 3.575727 19.87089 0 0 -9.465924 22.94874 14.17674 -17.07001
-2091.321 85.60461 1802.441 -10.56485 5.907651 -120.4646 4.209928 4.08542 -8.555625 -0 18.24533 -0 -16.83987 9.433657 4.060345 -1.089111 -5.011609 -3.175619 -0 25.41002 -0 5.851512 -5.597597 16.77647 0.2177799 -2.688937 4.344401 -1.041157 16.68953 -4.984812 1.152862 23.43129 4.21482 3.435028 -18.03875 4.311949 -5.08659 -24.46466 11.97156 94.7783 11.82964 -13.78505 -0 0 12.8763 -28.84781 8.747437 13.45251 5.938144 -26.73521 -10.07751 -89.34629 3.59717 19.92335 0 0 -9.498336 22.91782 14.18684 -17.02961
-2097.48 85.6945 1799.376 -10.49164 5.951525 -120.7525 4.268943 4.23558 -8.516315 -0 17.90898 -0 -16.82254 9.213941 4.051298 -1.017796 -5.251895 -3.138329 -0 25.48235 -0 5.81219 -5.537144 16.7848 0.2361289 -2.683142 4.386157 -1.030442 16.67633 -4.978169 1.151952 23.4152 4.202564 3.429686 -18.05779 4.301079 -5.076265 -24.50887 11.97735 94.70504 11.87716 -13.73778 -0 0 12.97592 -28.81525 8.767308 13.45595 5.934758 -26.71841 -10.04504 -89.39217 3.643522 20.01939 0 0 -9.488878 22.84747 14.20279 -16.93921
